<svg width="134" height="29" viewBox="0 0 134 29" fill="none" xmlns="http://www.w3.org/2000/svg">
<g clip-path="url(#clip0_3402_1239)">
<path d="M126.972 0.507812V18.5498L113.355 0.915539L113.043 0.507812H107.638V28.4372H113.719V10.2933L127.336 28.0295L127.647 28.4372H133.001V26.3476V0.507812H126.972Z" fill="#15141A"/>
<path d="M39.8126 28.4372C37.8896 28.4372 35.9666 28.1823 34.1475 27.6217L32.2245 23.9522L30.3015 20.2826C31.3929 21.149 33.7837 22.1683 35.2909 22.678C36.7462 23.1877 38.3054 23.4425 39.8646 23.4425C41.5797 23.4425 42.8271 23.1877 43.6067 22.678C44.3863 22.2193 44.8021 21.4038 44.8021 20.5374C44.8021 19.9258 44.5422 19.3652 44.0745 18.9575C43.5547 18.4988 42.931 18.142 42.2554 17.9382C41.5278 17.6833 40.5403 17.3775 39.2409 17.0717C37.6298 16.664 36.0186 16.2053 34.4074 15.5937C33.16 15.0841 32.0166 14.2686 31.185 13.2493C30.2495 12.0261 29.7818 10.4971 29.8857 8.91715C29.8857 7.43913 30.3015 5.96112 31.0811 4.68697C31.9647 3.36185 33.212 2.29156 34.7192 1.629C36.5903 0.813545 38.6692 0.456784 40.6962 0.50775C42.2034 0.456784 43.6587 0.660648 45.1139 1.01741L47.8165 7.643C45.6856 6.31788 43.1909 5.55339 40.6962 5.50243C39.033 5.50243 37.7857 5.80822 37.0061 6.36885C36.2784 6.87851 35.8107 7.69397 35.8107 8.61136C35.8107 9.52875 36.3304 10.3442 37.162 10.701C38.5133 11.2616 39.9166 11.7203 41.3718 12.0261C42.983 12.4338 44.5942 12.8925 46.2054 13.5041C47.4527 14.0138 48.5442 14.7783 49.4277 15.7976C50.3113 16.8679 50.779 18.2949 50.779 20.0787C50.779 21.6077 50.3632 23.0348 49.5317 24.3089C48.6481 25.634 47.3488 26.7043 45.8415 27.3159C43.8666 28.1314 41.8396 28.4881 39.8126 28.4372Z" fill="#15141A"/>
<path d="M59.4042 5.80835H52.6996L50.7246 0.558838H74.1646L72.0337 5.80835H65.4331V28.4883H59.4042V5.80835Z" fill="#15141A"/>
<path fill-rule="evenodd" clip-rule="evenodd" d="M81.5972 26.5006C83.8321 27.7238 86.3788 28.3354 88.9255 28.2844C91.4722 28.3354 93.9669 27.7238 96.2018 26.5006C98.3327 25.3284 100.1 23.5955 101.295 21.5569C102.543 19.3653 103.166 16.919 103.166 14.4216C103.218 11.9243 102.543 9.47792 101.295 7.33735C100.1 5.24773 98.3327 3.51489 96.2018 2.34267C93.9669 1.11948 91.4722 0.507885 88.9255 0.558851C86.3788 0.507885 83.8321 1.17044 81.5972 2.34267C79.4663 3.51489 77.6992 5.24773 76.5038 7.33735C75.2565 9.52889 74.6328 11.9753 74.6848 14.4216C74.6328 16.919 75.2565 19.3653 76.5038 21.5569C77.6992 23.6465 79.4663 25.3284 81.5972 26.5006ZM93.0834 22.2704C90.5367 23.7484 87.3143 23.7484 84.7676 22.2704C83.5202 21.5059 82.4808 20.3847 81.8051 19.0596C80.4018 16.1035 80.4018 12.7398 81.8051 9.78372C82.4808 8.4586 83.4683 7.38831 84.7676 6.62382C87.3143 5.09483 90.5367 5.09483 93.0834 6.62382C94.3307 7.38831 95.3182 8.4586 95.9939 9.78372C97.4491 12.7398 97.4491 16.1545 95.9939 19.0596C95.3182 20.3847 94.3307 21.5059 93.0834 22.2704Z" fill="#15141A"/>
<path d="M5.40523 28.3349C7.58812 23.4932 13.3572 21.3526 18.2427 23.4932C20.4775 24.4615 22.2966 26.2453 23.2321 28.4878H28.4814C28.4814 28.4878 28.1176 25.9905 25.6749 23.0854C24.4795 21.5564 22.9203 20.3333 21.1532 19.4668C17.619 17.6321 13.4611 17.2753 9.66705 18.4985L14.5006 6.16468L16.7354 13.4528C18.0348 13.4528 19.3861 13.6057 20.6334 14.0135C21.6729 14.3193 22.6604 14.8799 23.44 15.6444L17.3071 0.609375H11.746L0 28.5388H5.30128C5.35326 28.4369 5.35326 28.3859 5.40523 28.3349Z" fill="#137BEF"/>
</g>
<defs>
<clipPath id="clip0_3402_1239">
<rect width="134" height="28" fill="white" transform="translate(0 0.5)"/>
</clipPath>
</defs>
</svg>
